<svg xmlns="http://www.w3.org/2000/svg" viewBox="0 0 79.5 79.5"><defs><style>.cls-1{fill:#fff;}</style></defs><title>Asset 3</title><g id="Layer_2" data-name="Layer 2"><g id="ESG"><path class="cls-1" d="M60.37,38.66,31.22,18.78a1.32,1.32,0,0,0-2.07,1.09V59.62a1.32,1.32,0,0,0,2.07,1.09L60.37,40.84a1.32,1.32,0,0,0,0-2.19ZM31.8,57.12V22.38L57.27,39.75Z"/><path class="cls-1" d="M39.75,0A39.75,39.75,0,1,0,79.5,39.75,39.79,39.79,0,0,0,39.75,0Zm0,76.85a37.1,37.1,0,1,1,37.1-37.1A37.14,37.14,0,0,1,39.75,76.85Z"/></g></g></svg>