<svg xmlns="http://www.w3.org/2000/svg" viewBox="0 0 22.7 21.62"><defs><style>.cls-1{fill:none;stroke:#fff;stroke-miterlimit:10;}</style></defs><title>Asset 2</title><g id="Layer_2" data-name="Layer 2"><g id="Contact"><path class="cls-1" d="M20.62,15.69H19v2a.53.53,0,0,1-.53.53H4.25a.53.53,0,0,1-.53-.53v-2H2.08A1.58,1.58,0,0,0,.5,17.27v2.27a1.58,1.58,0,0,0,1.58,1.58H20.62a1.58,1.58,0,0,0,1.58-1.58V17.27A1.58,1.58,0,0,0,20.62,15.69Z"/><path class="cls-1" d="M13.53,1.46a1,1,0,0,0-1-1H10.37a1,1,0,0,0-1,1v.86h4.19Z"/><rect class="cls-1" x="9.34" y="3.6" width="4.19" height="1.7"/><path class="cls-1" d="M16.46,9.67l-2.93.82V7.3H9.34v3.23L6.41,9.68c-.47-.16-.6.05-.3.48l4.77,6.71a.64.64,0,0,0,1.11,0l4.77-6.71C17.07,9.73,16.93,9.51,16.46,9.67Z"/></g></g></svg>