<svg xmlns="http://www.w3.org/2000/svg" viewBox="0 0 325.18 253.2"><defs><style>.cls-1{opacity:0.07;}.cls-2{fill:#3d3d3d;}</style></defs><title>Asset 2</title><g id="Layer_2" data-name="Layer 2"><g id="Layer_1-2" data-name="Layer 1"><g id="zzOfMr" class="cls-1"><path class="cls-2" d="M180.73,253.2c0-.86-.08-1.37-.08-1.87,0-25.42-.43-50.85.18-76.26,1-44,13.85-84.34,39.31-120.38A128.1,128.1,0,0,1,265,15.29c9.87-5.26,20.69-8.46,31.73-10.46,9.29-1.68,18.65-3,27.87-4.45.23.26.39.36.39.45-.15,9.14,1,18.35-1.1,27.4-2.35,10.1-8.36,17.07-18.1,20.73a88.65,88.65,0,0,0-39.94,29.35A69.28,69.28,0,0,0,253.3,106.1c-.17.77-.24,1.56-.38,2.57h72.17c0,1,0,1.73,0,2.49q0,52.65,0,105.3c0,20.85-15.93,36.73-36.76,36.73H180.73Z"/><path class="cls-2" d="M0,253.2c0-1,0-1.76,0-2.48q0-34.67,0-69.33A224.55,224.55,0,0,1,28.55,71.6c12.5-22.66,30.21-40.05,51.8-53.89,8-5.15,16.89-8.3,26-10.46,12.45-3,25.15-4.89,37.75-7.25l.12.61c.07.12.2.25.2.37-.13,7.93.3,15.93-.53,23.79-1.29,12.19-8.16,20.29-19.78,24.71a85.09,85.09,0,0,0-41,32A68.44,68.44,0,0,0,72.6,106.68c-.13.62-.17,1.26-.28,2.08h72.13v2.44q0,52.54,0,105.08c0,18.94-12.51,33.6-31.13,36.62a28.47,28.47,0,0,1-4.53.29q-53.19,0-106.38,0Z"/></g></g></g></svg>