<svg xmlns="http://www.w3.org/2000/svg" viewBox="0 0 21.33 21.33"><defs><style>.cls-1{fill:#333f4f;}</style></defs><title>Asset 1</title><g id="Layer_2" data-name="Layer 2"><g id="Partners_detail_page" data-name="Partners detail page"><path class="cls-1" d="M10.67,0A10.67,10.67,0,1,0,21.33,10.67,10.67,10.67,0,0,0,10.67,0ZM11,19.4a.49.49,0,0,1-.33.13.5.5,0,0,1-.34-.13,11.56,11.56,0,0,1-3.24-5,14.66,14.66,0,0,1,7.15,0A11.56,11.56,0,0,1,11,19.4ZM6.69,12.82a11.81,11.81,0,0,1,0-4.31,16.3,16.3,0,0,0,4,.51,16.3,16.3,0,0,0,3.92-.48,11.81,11.81,0,0,1,0,4.25A16.31,16.31,0,0,0,6.69,12.82ZM10.33,1.93a.49.49,0,0,1,.33-.13.5.5,0,0,1,.34.13,11.56,11.56,0,0,1,3.24,5,14.66,14.66,0,0,1-7.15,0A11.56,11.56,0,0,1,10.33,1.93Zm5.89,6.13a16.17,16.17,0,0,0,2.62-1.21,9,9,0,0,1,0,7.64,16.15,16.15,0,0,0-2.62-1.21,13.44,13.44,0,0,0,0-5.21ZM18,5.43a14.5,14.5,0,0,1-2.2,1,13.31,13.31,0,0,0-2.42-4.4A9.06,9.06,0,0,1,18,5.43ZM7.94,2.06A13.3,13.3,0,0,0,5.53,6.43a14.5,14.5,0,0,1-2.18-1A9.06,9.06,0,0,1,7.94,2.06ZM2.51,6.8A16.15,16.15,0,0,0,5.12,8a13.48,13.48,0,0,0,0,5.28,16.17,16.17,0,0,0-2.6,1.23,9,9,0,0,1,0-7.74Zm.84,9.15a14.5,14.5,0,0,1,2.18-1,13.3,13.3,0,0,0,2.41,4.37A9.06,9.06,0,0,1,3.35,15.95Zm10,3.32a13.31,13.31,0,0,0,2.42-4.4,14.53,14.53,0,0,1,2.2,1A9.06,9.06,0,0,1,13.39,19.27Z"/></g></g></svg>