<?xml version="1.0" encoding="utf-8"?>
<!-- Generator: Adobe Illustrator 19.2.1, SVG Export Plug-In . SVG Version: 6.00 Build 0)  -->
<svg version="1.1" id="Capa_1" xmlns="http://www.w3.org/2000/svg" xmlns:xlink="http://www.w3.org/1999/xlink" x="0px" y="0px"
	 viewBox="0 0 507.5 507.5" style="enable-background:new 0 0 507.5 507.5;" xml:space="preserve">
<style type="text/css">
	.st0{fill:#FFFFFF;}
</style>
<g>
	<g id="share-alt">
		<path class="st0" d="M408,178.5c-20.4,0-38.2,7.6-51,20.4L175.9,94.3c2.6-5.1,2.6-12.8,2.6-17.8C178.5,33.2,145.4,0,102,0
			S25.5,33.2,25.5,76.5S58.7,153,102,153c20.4,0,38.2-7.6,51-20.4l181,104.6c-2.5,5.1-2.5,12.8-2.5,17.9c0,5.1,0,12.7,2.5,17.8
			L153,380c-12.8-12.8-30.6-20.4-51-20.4c-40.8,0-73.9,33.1-73.9,73.9s33.1,74,73.9,74s73.9-33.1,73.9-74c0-5.1,0-10.2-2.6-17.9
			l181.1-107.1c12.8,12.8,30.6,20.4,51,20.4c43.4,0,76.5-33.1,76.5-76.5S451.4,178.5,408,178.5z"/>
	</g>
</g>
</svg>
