<svg id="Layer_1" data-name="Layer 1" xmlns="http://www.w3.org/2000/svg" xmlns:xlink="http://www.w3.org/1999/xlink" viewBox="0 0 202.23 84.52"><defs><clipPath id="clip-path"><rect x="-0.66" y="-0.62" width="203.65" height="85.43" style="fill:none"/></clipPath></defs><title>Logo</title><g style="clip-path:url(#clip-path)"><rect x="140.13" y="33.63" width="6.04" height="6.04" style="fill:#fff"/><rect x="140.13" y="22.42" width="6.04" height="6.04" style="fill:#fff"/><rect x="128.92" width="6.04" height="6.04" style="fill:#fff"/><rect x="117.71" width="6.04" height="6.04" style="fill:#fff"/><rect x="106.5" width="6.04" height="6.04" style="fill:#fff"/><rect x="72.87" width="6.04" height="6.04" style="fill:#fff"/><polygon points="0 67.7 5.61 67.7 5.61 78.47 0 78.47 0 84.52 11.65 84.52 11.65 61.66 6.04 61.66 6.04 50.88 28.46 50.88 28.46 44.84 0 44.84 0 67.7" style="fill:#fff"/><polygon points="16.82 84.52 28.46 84.52 28.46 78.47 22.86 78.47 22.86 62.09 28.46 62.09 28.46 56.05 16.82 56.05 16.82 84.52" style="fill:#fff"/><polygon points="191.82 84.52 202.23 84.52 202.23 78.47 197.87 78.47 197.87 62.09 202.23 62.09 202.23 56.05 191.82 56.05 191.82 84.52" style="fill:#fff"/><rect x="33.63" y="44.84" width="6.04" height="6.04" style="fill:#fff"/><rect x="33.63" y="56.05" width="6.04" height="28.46" style="fill:#fff"/><path d="M44.84,84.52H60.23v-6H50.89V73.31h9.34V56.05H44.84Zm6-17.25V62.1h3.3v5.17Z" style="fill:#fff"/><polygon points="93.24 44.84 87.19 44.84 87.19 84.52 97.6 84.52 97.6 78.47 93.24 78.47 93.24 62.09 97.6 62.09 97.6 56.05 93.24 56.05 93.24 44.84" style="fill:#fff"/><rect x="98.4" y="44.84" width="36.56" height="6.04" style="fill:#fff"/><path d="M103.39,84.52h15.38v-6h-9.34V73.31h9.34V56.05H103.39Zm6-17.25V62.1h3.3v5.17Z" style="fill:#fff"/><polygon points="65.4 84.52 71.44 84.52 71.44 62.09 75.36 62.09 75.36 84.52 81.4 84.52 81.4 56.05 65.4 56.05 65.4 84.52" style="fill:#fff"/><polygon points="160.69 84.52 166.73 84.52 166.73 62.09 170.65 62.09 170.65 84.52 176.69 84.52 176.69 56.05 160.69 56.05 160.69 84.52" style="fill:#fff"/><polygon points="146.18 44.84 140.13 44.84 140.13 84.52 146.18 84.52 146.18 62.09 150.1 62.09 150.1 84.52 156.14 84.52 156.14 56.05 146.18 56.05 146.18 44.84" style="fill:#fff"/><rect x="181.24" y="44.84" width="6.04" height="6.04" style="fill:#fff"/><rect x="151.34" y="44.84" width="25.35" height="6.04" style="fill:#fff"/><rect x="191.83" y="44.84" width="10.4" height="6.04" style="fill:#fff"/><rect x="181.24" y="56.05" width="6.04" height="28.46" style="fill:#fff"/><rect x="44.84" y="44.84" width="36.56" height="6.04" style="fill:#fff"/><rect x="33.63" y="33.63" width="6.04" height="6.04" style="fill:#fff"/><rect x="45.01" y="33.63" width="6.04" height="6.04" style="fill:#fff"/><rect y="33.63" width="28.72" height="6.04" style="fill:#fff"/><rect x="55.69" y="33.63" width="79.27" height="6.04" style="fill:#fff"/><polygon points="146.18 0 140.13 0 140.13 11.21 128.92 11.21 128.92 22.42 123.75 22.42 123.75 11.21 117.71 11.21 117.71 22.42 112.54 22.42 112.54 11.21 90.12 11.21 90.12 6.04 101.33 6.04 101.33 0 84.08 0 84.08 17.25 106.5 17.25 106.5 22.42 78.91 22.42 78.91 11.21 72.87 11.21 72.87 22.42 67.7 22.42 67.7 11.21 61.66 11.21 61.66 22.42 56.49 22.42 56.49 11.21 6.04 11.21 6.04 6.04 67.7 6.04 67.7 0 0 0 0 17.25 50.45 17.25 50.45 22.42 0 22.42 0 28.46 134.97 28.46 134.97 17.25 146.18 17.25 146.18 0" style="fill:#fff"/><polygon points="151.34 0 151.34 28.46 191.02 28.46 191.02 22.42 191.02 22.42 191.02 11.21 184.97 11.21 184.97 22.42 179.81 22.42 179.81 11.21 173.76 11.21 173.76 22.42 168.6 22.42 168.6 11.21 162.55 11.21 162.55 22.42 157.39 22.42 157.39 6.04 196.19 6.04 196.19 33.63 151.34 33.63 151.34 39.67 202.23 39.67 202.23 0 151.34 0" style="fill:#fff"/><polygon points="124.56 84.52 134.97 84.52 134.97 78.47 130.6 78.47 130.6 62.09 134.97 62.09 134.97 56.05 124.56 56.05 124.56 84.52" style="fill:#fff"/></g></svg>